<svg width="166" height="45" viewBox="0 0 166 45" fill="none" xmlns="http://www.w3.org/2000/svg">
<path d="M130.612 44.698C122.329 44.698 117.332 40.8272 114.599 37.5804L111.681 34.1123L108.531 37.3849C103.991 42.1006 97.8586 44.698 91.2628 44.698C85.7886 44.698 81.0181 42.4012 77.8297 38.2307L74.9529 34.469L71.651 37.8888C67.4103 42.2797 61.3435 44.698 54.5682 44.698C49.1479 44.698 44.3388 43.0071 40.66 39.8078L38.2293 37.6941L35.5916 39.5609C30.7744 42.9698 25.5683 44.698 20.1175 44.698C7.69159 44.698 0 34.3413 0 24.7455C0 11.8904 9.58127 1.82194 21.8123 1.82194C23.4226 1.82194 24.995 2.07116 26.4878 2.56259L28.6327 3.2682L30.3694 1.86166C31.6271 0.842972 33.2317 0.282227 34.8871 0.282227C36.2639 0.282227 37.6013 0.669297 38.7534 1.40216C39.619 1.952 40.3299 2.65293 40.867 3.48704L43.2035 7.11476L46.7212 4.52676C49.16 2.73159 52.8234 1.82194 57.6084 1.82194C62.9047 1.82194 67.6019 3.54779 71.1937 6.81102L72.3016 7.81802L73.8201 7.86553C76.8652 7.96133 80.1945 8.00961 83.717 8.00961C84.7701 8.00961 85.8281 8.24404 86.7774 8.68718L90.192 10.283L92.0422 7.08127C93.9456 3.78844 97.5631 1.82272 101.72 1.82272C106.437 1.82272 110.488 3.95433 113.127 7.82581L117.028 13.5516L120.112 7.37644C122.405 2.78611 128.741 1.82272 133.652 1.82272C138.961 1.82272 143.666 3.5548 147.259 6.83205L148.373 7.84762L149.902 7.89123C152.692 7.97067 155.738 8.01039 158.955 8.01039C162.84 8.01039 166 11.0672 166 14.825C166 18.5828 162.839 21.6396 158.955 21.6396L154.11 21.624L153.701 25.0874C153.144 29.7837 151.201 34.0687 148.081 37.4791C143.82 42.1349 137.616 44.6995 130.612 44.6995V44.698Z" fill="white"/>
<path d="M130.61 40.8039C119.645 40.8039 115.076 32.9037 113.765 27.0945C112.631 27.0119 111.565 26.8772 110.563 26.7004C107.662 34.4037 100.811 40.8032 91.2599 40.8032C86.4161 40.8032 82.4339 38.5244 80.0474 34.3881C77.384 29.7721 77.0885 23.3313 79.0241 17.7145C76.9299 17.688 74.983 17.6436 73.169 17.5844C73.5821 19.1296 73.7906 20.7324 73.7906 22.3321C73.7906 27.0727 72.0965 31.5345 69.0209 34.8966C66.5547 37.5913 62.0443 40.8039 54.566 40.8039C45.9775 40.8039 41.3133 35.9566 39.0653 31.0649C35.2578 35.4177 28.7948 40.8039 20.1153 40.8039C10.1766 40.8039 4.02441 32.4683 4.02441 24.7456C4.02441 13.8967 11.6709 5.71529 21.811 5.71529C25.3979 5.71529 28.0195 7.32977 29.7988 9.26201L32.36 5.49255C33.2755 4.1452 35.1475 3.76982 36.5412 4.65611C37.9341 5.54162 38.3222 7.35236 37.4059 8.70048L32.1773 16.3975C31.5291 17.3515 30.3641 17.8547 29.1982 17.6802C28.0307 17.5073 27.075 16.6927 26.7506 15.5953C26.6274 15.2012 25.3794 11.5556 21.811 11.5556C15.0034 11.5556 10.063 17.1023 10.063 24.7448C10.063 29.6591 13.906 34.9621 20.1153 34.9621C30.8085 34.9621 37.6152 22.9995 37.6821 22.878C38.3214 21.7324 39.6668 21.1381 40.9824 21.4131C42.2972 21.6903 43.2634 22.776 43.3511 24.0743C43.4365 25.1778 44.4799 34.9613 54.566 34.9613C58.7069 34.9613 62.1417 33.5999 64.4992 31.0228C66.566 28.7643 67.752 25.5953 67.752 22.3305C67.752 20.5891 67.4211 18.8422 66.7343 17.2768C50.2859 16.2114 48.7231 13.5945 48.0451 12.4583C47.3632 11.3157 47.36 9.95671 48.0371 8.82198C49.6514 6.11716 54.7255 5.71373 57.6063 5.71373C63.3051 5.71373 67.5459 8.11793 70.2544 11.6218C73.9291 11.7939 78.3646 11.9006 83.7149 11.9006C84.8091 11.9006 85.8179 12.4731 86.3509 13.3983C86.8839 14.3227 86.859 15.4544 86.2841 16.3547C83.3735 20.9185 82.9588 27.4465 85.3211 31.54C86.6303 33.8102 88.6287 34.9613 91.2607 34.9613C96.7848 34.9613 100.246 32.0267 102.177 29.5649C103.241 28.2082 104.118 26.6467 104.769 24.994C102.919 24.1973 101.463 23.2838 100.35 22.4341C96.7792 19.7067 94.648 16.0096 94.648 12.5463C94.648 8.52369 97.5554 5.71451 101.718 5.71451C107.931 5.71451 112.104 10.8126 112.104 18.4006C112.104 19.2659 112.054 20.1366 111.952 21.0065C113.269 21.2199 114.742 21.3469 116.383 21.3469C117.974 21.3469 119.291 22.54 119.396 24.075C119.48 25.1786 120.525 34.9621 130.611 34.9621C134.752 34.9621 138.186 33.6007 140.544 31.0236C142.611 28.765 143.797 25.5961 143.797 22.3313C143.797 20.6062 143.472 18.8757 142.799 17.3227C138.922 17.0875 135.61 16.7542 132.89 16.3227C127.914 15.5338 123.31 14.3087 123.31 10.7106C123.31 7.53538 127.079 5.71451 133.651 5.71451C139.368 5.71451 143.619 8.13429 146.326 11.6576C149.817 11.8087 153.984 11.9014 158.954 11.9014C160.622 11.9014 161.974 13.209 161.974 14.822C161.974 16.4349 160.622 17.7425 158.954 17.7425C155.463 17.7425 152.216 17.6973 149.22 17.607C149.629 19.1459 149.836 20.7394 149.836 22.3305C149.836 27.0711 148.142 31.533 145.066 34.8951C142.6 37.5898 138.09 40.8024 130.612 40.8024L130.61 40.8039ZM101.717 11.5564C100.943 11.5564 100.686 11.6997 100.686 12.547C100.686 13.7939 101.578 15.931 104.092 17.8515C104.626 18.2596 105.274 18.688 106.05 19.0992C106.06 18.8656 106.066 18.6327 106.066 18.4014C106.066 16.7955 105.751 11.5564 101.717 11.5564Z" fill="black"/>
<path d="M51.9843 28.1431C49.2009 28.1431 46.936 25.9531 46.936 23.2591C46.936 20.5652 49.2001 18.376 51.9843 18.376C54.7685 18.376 57.0326 20.566 57.0326 23.2591C57.0326 25.9523 54.7685 28.1431 51.9843 28.1431Z" fill="black"/>
<path d="M128.029 28.1431C125.244 28.1431 122.98 25.9531 122.98 23.2591C122.98 20.5652 125.244 18.376 128.029 18.376C130.814 18.376 133.077 20.566 133.077 23.2591C133.077 25.9523 130.813 28.1431 128.029 28.1431Z" fill="black"/>
</svg>
