<svg width="24" height="25" viewBox="0 0 24 25" fill="none" xmlns="http://www.w3.org/2000/svg">
<mask id="mask0_0_69" style="mask-type:alpha" maskUnits="userSpaceOnUse" x="0" y="0" width="24" height="25">
<rect y="0.460938" width="24" height="24" fill="#D9D9D9"/>
</mask>
<g mask="url(#mask0_0_69)">
<path d="M15.2998 16.8341L10.9998 12.6154V7.31741H12.9998V11.8305L16.6998 15.4606L15.2998 16.8341ZM2.8498 16.2209C2.63314 15.7467 2.45814 15.2562 2.3248 14.7493C2.19147 14.2424 2.0998 13.7273 2.0498 13.204H4.0748C4.1248 13.5474 4.19564 13.8908 4.2873 14.2342C4.37897 14.5776 4.49147 14.9128 4.6248 15.2398L2.8498 16.2209ZM2.0498 11.2418C2.0998 10.7186 2.19147 10.1994 2.3248 9.68432C2.45814 9.16924 2.64147 8.6746 2.8748 8.2004L4.6248 9.18151C4.49147 9.50854 4.37897 9.84375 4.2873 10.1871C4.19564 10.5305 4.1248 10.8821 4.0748 11.2418H2.0498ZM6.1748 20.2189C5.7248 19.8919 5.30814 19.5363 4.9248 19.152C4.54147 18.7677 4.18314 18.3548 3.8498 17.9133L5.5998 16.9322C5.83314 17.2266 6.07897 17.5005 6.3373 17.7539C6.59564 18.0074 6.8748 18.2486 7.1748 18.4775L6.1748 20.2189ZM5.6248 7.4891L3.8498 6.508C4.18314 6.0665 4.54147 5.6577 4.9248 5.28161C5.30814 4.90552 5.7248 4.55396 6.1748 4.22693L7.1748 5.96839C6.89147 6.19731 6.62064 6.4385 6.3623 6.69195C6.10397 6.9454 5.85814 7.21112 5.6248 7.4891ZM10.9998 21.9849C10.4665 21.9359 9.9373 21.8459 9.4123 21.7151C8.8873 21.5843 8.38314 21.4044 7.8998 21.1755L8.8998 19.4586C9.23314 19.5894 9.5748 19.6998 9.9248 19.7897C10.2748 19.8796 10.6331 19.9491 10.9998 19.9982V21.9849ZM8.8998 4.98728L7.8998 3.27035C8.38314 3.04142 8.8873 2.86156 9.4123 2.73074C9.9373 2.59993 10.4665 2.50999 10.9998 2.46094V4.44767C10.6331 4.49673 10.2748 4.56623 9.9248 4.65616C9.5748 4.74609 9.23314 4.85647 8.8998 4.98728ZM12.9998 21.9849V19.9982C13.3665 19.9491 13.7248 19.8796 14.0748 19.7897C14.4248 19.6998 14.7665 19.5894 15.0998 19.4586L16.0998 21.1755C15.6165 21.4044 15.1123 21.5843 14.5873 21.7151C14.0623 21.8459 13.5331 21.9359 12.9998 21.9849ZM15.0998 4.98728C14.7665 4.85647 14.4248 4.74609 14.0748 4.65616C13.7248 4.56623 13.3665 4.49673 12.9998 4.44767V2.46094C13.5331 2.50999 14.0623 2.59993 14.5873 2.73074C15.1123 2.86156 15.6165 3.04142 16.0998 3.27035L15.0998 4.98728ZM17.8248 20.2189L16.8248 18.4775C17.1081 18.2486 17.379 18.0074 17.6373 17.7539C17.8956 17.5005 18.1415 17.2347 18.3748 16.9568L20.1498 17.9379C19.8165 18.3794 19.4581 18.7922 19.0748 19.1765C18.6915 19.5608 18.2748 19.9083 17.8248 20.2189ZM18.3748 7.4891C18.1415 7.21112 17.8956 6.9454 17.6373 6.69195C17.379 6.4385 17.1081 6.19731 16.8248 5.96839L17.8248 4.22693C18.2748 4.53761 18.6915 4.881 19.0748 5.25709C19.4581 5.63318 19.8081 6.04197 20.1248 6.48347L18.3748 7.4891ZM19.9248 11.2418C19.8748 10.8821 19.804 10.5305 19.7123 10.1871C19.6206 9.84375 19.5081 9.50854 19.3748 9.18151L21.1248 8.17587C21.3415 8.66643 21.5206 9.16924 21.6623 9.68432C21.804 10.1994 21.8998 10.7186 21.9498 11.2418H19.9248ZM21.1248 16.2455L19.3748 15.2644C19.5081 14.9373 19.6206 14.6021 19.7123 14.2587C19.804 13.9153 19.8748 13.5638 19.9248 13.204H21.9498C21.8998 13.7273 21.8081 14.2465 21.6748 14.7615C21.5415 15.2766 21.3581 15.7713 21.1248 16.2455Z" fill="#6D6D6D"/>
</g>
</svg>
